<?xml version="1.0" standalone="no"?>
<!DOCTYPE svg PUBLIC "-//W3C//DTD SVG 20010904//EN"
 "http://www.w3.org/TR/2001/REC-SVG-20010904/DTD/svg10.dtd">
<svg version="1.0" xmlns="http://www.w3.org/2000/svg"
 width="200.000000pt" height="200.000000pt" viewBox="0 0 200.000000 200.000000"
 preserveAspectRatio="xMidYMid meet">
<metadata>
Created by potrace 1.16, written by Peter Selinger 2001-2019
</metadata>
<g transform="translate(0.000000,200.000000) scale(0.100000,-0.100000)"
fill="#000000" stroke="none">
<path d="M796 1829 c-188 -82 -196 -87 -169 -109 18 -14 20 -26 16 -135 -2
-66 -5 -125 -7 -131 -6 -16 15 -94 25 -94 19 0 28 78 19 180 -5 68 -5 109 2
117 5 7 7 17 3 23 -8 13 -2 13 29 -1 22 -10 25 -19 28 -67 l3 -55 110 -49 c65
-28 124 -48 145 -48 19 0 84 22 145 48 l110 48 3 56 3 56 54 22 c64 26 81 42
62 58 -7 6 -86 43 -175 82 -120 51 -174 70 -205 69 -29 0 -90 -21 -201 -70z"/>
<path d="M730 1488 c0 -24 7 -74 15 -113 72 -337 387 -374 494 -58 19 55 40
213 29 213 -3 0 -22 -7 -42 -15 -34 -14 -36 -18 -36 -60 0 -37 3 -43 16 -38
14 5 15 1 9 -28 -14 -70 -58 -150 -103 -189 -80 -71 -156 -67 -237 13 -39 40
-57 68 -73 117 -26 76 -27 94 -7 86 12 -4 15 4 15 39 0 42 -2 46 -36 60 -20 8
-38 15 -40 15 -2 0 -4 -19 -4 -42z"/>
<path d="M723 1125 c-119 -37 -200 -120 -237 -242 l-7 -23 521 0 521 0 -6 23
c-16 52 -45 105 -79 144 -39 45 -135 98 -197 108 -33 6 -37 4 -43 -18 -17 -70
-181 -113 -293 -77 -52 17 -103 57 -103 81 0 22 -17 23 -77 4z"/>
<path d="M415 814 c-15 -17 -25 -39 -25 -58 0 -42 79 -514 92 -549 21 -57 26
-57 518 -57 478 0 497 2 515 47 10 27 95 523 95 559 0 20 -9 40 -26 58 l-27
26 -559 0 -559 0 -24 -26z m1141 -29 c15 -15 23 -33 20 -43 -2 -9 -23 -129
-46 -267 -27 -158 -48 -256 -58 -267 -14 -17 -49 -18 -472 -18 -423 0 -458 1
-472 18 -10 11 -31 108 -57 262 -23 135 -44 255 -46 268 -4 15 2 30 19 47 l25
25 531 0 531 0 25 -25z"/>
<path d="M510 120 c0 -20 7 -20 490 -20 483 0 490 0 490 20 0 20 -7 20 -490
20 -483 0 -490 0 -490 -20z"/>
</g>
</svg>
